<svg xmlns="http://www.w3.org/2000/svg" width="1000" height="440" font-family="sans-serif">
<rect width="1000" height="440" fill="white"/>
<text x="500.0" y="24" font-size="15" font-weight="bold" text-anchor="middle">Per-wave tile fit vs the reference photo — lower bar = worse</text>
<text x="500.0" y="42" font-size="12" text-anchor="middle" fill="#555">Slate-gray (deep_navy) family clusters at the bottom = the real bleed.  Red-outlined w8/w12 (task-named) sit mid-pack.</text>
<line x1="70" y1="332.0" x2="970" y2="332.0" stroke="#eee"/>
<text x="62" y="336.0" font-size="10" text-anchor="end" fill="#999">0.2</text>
<line x1="70" y1="264.0" x2="970" y2="264.0" stroke="#eee"/>
<text x="62" y="268.0" font-size="10" text-anchor="end" fill="#999">0.4</text>
<line x1="70" y1="196.0" x2="970" y2="196.0" stroke="#eee"/>
<text x="62" y="200.0" font-size="10" text-anchor="end" fill="#999">0.6</text>
<line x1="70" y1="127.99999999999999" x2="970" y2="127.99999999999999" stroke="#eee"/>
<text x="62" y="132.0" font-size="10" text-anchor="end" fill="#999">0.8</text>
<rect x="76.1" y="330.5" width="28.6" height="69.5" fill="#3C3F47"/>
<text x="90.5" y="416" font-size="9" text-anchor="middle" fill="#333">w19</text>
<text x="90.5" y="326.5" font-size="8" text-anchor="middle" fill="#666">0.20</text>
<rect x="117.0" y="317.3" width="28.6" height="82.7" fill="#3C3F47"/>
<text x="131.4" y="416" font-size="9" text-anchor="middle" fill="#333">w15</text>
<text x="131.4" y="313.3" font-size="8" text-anchor="middle" fill="#666">0.24</text>
<rect x="158.0" y="317.0" width="28.6" height="83.0" fill="#3C3F47"/>
<text x="172.3" y="416" font-size="9" text-anchor="middle" fill="#333">w16</text>
<text x="172.3" y="313.0" font-size="8" text-anchor="middle" fill="#666">0.24</text>
<rect x="198.9" y="314.7" width="28.6" height="85.3" fill="#3C3F47"/>
<text x="213.2" y="416" font-size="9" text-anchor="middle" fill="#333">w10</text>
<text x="213.2" y="310.7" font-size="8" text-anchor="middle" fill="#666">0.25</text>
<rect x="239.8" y="313.9" width="28.6" height="86.1" fill="#3C3F47"/>
<text x="254.1" y="416" font-size="9" text-anchor="middle" fill="#333">w7</text>
<text x="254.1" y="309.9" font-size="8" text-anchor="middle" fill="#666">0.25</text>
<rect x="280.7" y="311.3" width="28.6" height="88.7" fill="#3C3F47"/>
<text x="295.0" y="416" font-size="9" text-anchor="middle" fill="#333">w11</text>
<text x="295.0" y="307.3" font-size="8" text-anchor="middle" fill="#666">0.26</text>
<rect x="321.6" y="310.8" width="28.6" height="89.2" fill="#3C3F47"/>
<text x="335.9" y="416" font-size="9" text-anchor="middle" fill="#333">w21</text>
<text x="335.9" y="306.8" font-size="8" text-anchor="middle" fill="#666">0.26</text>
<rect x="362.5" y="286.6" width="28.6" height="113.4" fill="#132A61" stroke="#d22" stroke-width="3"/>
<text x="376.8" y="416" font-size="9" text-anchor="middle" fill="#333">w8</text>
<text x="376.8" y="282.6" font-size="8" text-anchor="middle" fill="#666">0.33</text>
<rect x="403.4" y="255.8" width="28.6" height="144.2" fill="#3C3F47"/>
<text x="417.7" y="416" font-size="9" text-anchor="middle" fill="#333">w4</text>
<text x="417.7" y="251.8" font-size="8" text-anchor="middle" fill="#666">0.42</text>
<rect x="444.3" y="252.7" width="28.6" height="147.3" fill="#132A61"/>
<text x="458.6" y="416" font-size="9" text-anchor="middle" fill="#333">w20</text>
<text x="458.6" y="248.7" font-size="8" text-anchor="middle" fill="#666">0.43</text>
<rect x="485.2" y="246.5" width="28.6" height="153.5" fill="#132A61"/>
<text x="499.5" y="416" font-size="9" text-anchor="middle" fill="#333">w17</text>
<text x="499.5" y="242.5" font-size="8" text-anchor="middle" fill="#666">0.45</text>
<rect x="526.1" y="242.6" width="28.6" height="157.4" fill="#2661BF"/>
<text x="540.5" y="416" font-size="9" text-anchor="middle" fill="#333">w14</text>
<text x="540.5" y="238.6" font-size="8" text-anchor="middle" fill="#666">0.46</text>
<rect x="567.0" y="242.5" width="28.6" height="157.5" fill="#132A61" stroke="#d22" stroke-width="3"/>
<text x="581.4" y="416" font-size="9" text-anchor="middle" fill="#333">w12</text>
<text x="581.4" y="238.5" font-size="8" text-anchor="middle" fill="#666">0.46</text>
<rect x="608.0" y="223.8" width="28.6" height="176.2" fill="#132A61"/>
<text x="622.3" y="416" font-size="9" text-anchor="middle" fill="#333">w6</text>
<text x="622.3" y="219.8" font-size="8" text-anchor="middle" fill="#666">0.52</text>
<rect x="648.9" y="222.7" width="28.6" height="177.3" fill="#BBC5D5"/>
<text x="663.2" y="416" font-size="9" text-anchor="middle" fill="#333">w13</text>
<text x="663.2" y="218.7" font-size="8" text-anchor="middle" fill="#666">0.52</text>
<rect x="689.8" y="221.9" width="28.6" height="178.1" fill="#132A61"/>
<text x="704.1" y="416" font-size="9" text-anchor="middle" fill="#333">w22</text>
<text x="704.1" y="217.9" font-size="8" text-anchor="middle" fill="#666">0.52</text>
<rect x="730.7" y="217.8" width="28.6" height="182.2" fill="#3EAACC"/>
<text x="745.0" y="416" font-size="9" text-anchor="middle" fill="#333">w5</text>
<text x="745.0" y="213.8" font-size="8" text-anchor="middle" fill="#666">0.54</text>
<rect x="771.6" y="216.5" width="28.6" height="183.5" fill="#3EAACC"/>
<text x="785.9" y="416" font-size="9" text-anchor="middle" fill="#333">w9</text>
<text x="785.9" y="212.5" font-size="8" text-anchor="middle" fill="#666">0.54</text>
<rect x="812.5" y="214.3" width="28.6" height="185.7" fill="#2661BF"/>
<text x="826.8" y="416" font-size="9" text-anchor="middle" fill="#333">w18</text>
<text x="826.8" y="210.3" font-size="8" text-anchor="middle" fill="#666">0.55</text>
<rect x="853.4" y="194.9" width="28.6" height="205.1" fill="#3C3F47"/>
<text x="867.7" y="416" font-size="9" text-anchor="middle" fill="#333">w2</text>
<text x="867.7" y="190.9" font-size="8" text-anchor="middle" fill="#666">0.60</text>
<rect x="894.3" y="157.4" width="28.6" height="242.6" fill="#132A61"/>
<text x="908.6" y="416" font-size="9" text-anchor="middle" fill="#333">w1</text>
<text x="908.6" y="153.4" font-size="8" text-anchor="middle" fill="#666">0.71</text>
<rect x="935.2" y="136.9" width="28.6" height="263.1" fill="#80A1E8"/>
<text x="949.5" y="416" font-size="9" text-anchor="middle" fill="#333">w3</text>
<text x="949.5" y="132.9" font-size="8" text-anchor="middle" fill="#666">0.77</text>
</svg>